<?xml version="1.0" standalone="no"?>
<!DOCTYPE svg PUBLIC "-//W3C//DTD SVG 20010904//EN"
 "http://www.w3.org/TR/2001/REC-SVG-20010904/DTD/svg10.dtd">
<svg version="1.0" xmlns="http://www.w3.org/2000/svg"
 width="242.000000pt" height="133.000000pt" viewBox="0 0 242.000000 133.000000"
 preserveAspectRatio="xMidYMid meet">
<metadata>
Created by potrace 1.10, written by Peter Selinger 2001-2011
</metadata>
<g transform="translate(0.000000,133.000000) scale(0.050000,-0.050000)"
fill="#000000" stroke="none">
<path d="M1275 2516 c-46 -12 -76 -33 -78 -53 -1 -18 -8 -136 -15 -263 l-12
-230 -271 -91 c-377 -126 -863 -398 -762 -427 55 -16 93 -5 277 77 177 80 445
164 711 224 l55 12 0 -616 c0 -587 -2 -621 -42 -704 -24 -48 -39 -89 -35 -92
123 -79 182 -130 237 -203 37 -49 69 -87 71 -85 134 156 250 325 240 349 -9
24 -18 21 -50 -17 l-38 -47 -71 80 -71 80 2 635 c1 377 10 641 21 648 11 6
484 20 1053 30 l1033 19 94 92 c105 104 106 116 7 134 -54 11 -95 1 -186 -46
-197 -99 -394 -111 -1195 -74 -374 18 -711 39 -750 48 l-70 16 8 264 7 264
-47 -2 c-27 -1 -82 -11 -123 -22z"/>
<path d="M2640 1664 c-16 -8 -54 -31 -84 -51 -54 -36 -56 -36 -108 5 -66 52
-89 38 -36 -20 54 -59 70 -812 19 -890 -18 -26 -24 -48 -14 -48 9 0 56 -26
104 -58 l87 -59 76 54 c80 57 100 93 39 74 -93 -30 -106 32 -99 489 l6 424 60
48 c61 49 30 68 -50 32z"/>
<path d="M1614 1300 c-78 -74 -80 -79 -34 -75 l50 5 10 -285 c10 -284 10 -284
70 -344 l60 -60 110 89 c133 107 126 106 157 22 42 -116 69 -124 172 -50 99
71 112 87 52 68 -63 -20 -81 48 -81 302 0 184 7 242 31 269 29 32 -55 141
-108 138 -50 -2 -129 -106 -107 -141 15 -23 24 -123 24 -254 l0 -216 -59 -44
c-129 -96 -161 -45 -161 258 0 176 7 232 31 259 29 32 26 39 -37 87 -86 66
-80 67 -180 -28z"/>
<path d="M3080 1341 c-27 -22 -79 -50 -115 -62 l-65 -22 0 -267 c0 -157 -8
-273 -20 -280 -38 -23 -20 -47 45 -61 36 -8 108 -36 161 -62 l96 -49 50 40
c28 22 81 50 119 62 l69 23 0 304 -1 303 -114 46 c-167 68 -170 68 -225 25z
m108 -131 l72 -31 0 -249 c0 -138 -6 -250 -14 -250 -8 0 -53 15 -100 33 l-86
32 0 248 c0 273 -1 271 128 217z"/>
<path d="M3735 1307 l-95 -71 0 -274 c0 -182 -8 -282 -23 -297 -18 -18 -15
-26 15 -35 21 -7 82 -30 136 -51 l98 -38 98 72 c95 70 123 117 38 63 -37 -22
-53 -20 -117 14 l-75 40 -6 245 c-6 264 -5 267 100 213 60 -31 64 -31 99 15
49 64 49 66 -52 125 -108 64 -100 64 -216 -21z"/>
<path d="M4369 1351 c-22 -17 -68 -30 -104 -30 -77 -1 -79 -12 -22 -134 35
-73 39 -99 20 -124 -163 -225 -179 -339 -67 -465 l55 -62 117 95 c114 92 151
97 152 17 0 -11 20 -40 45 -63 l45 -42 75 69 c41 38 75 75 75 82 0 8 -11 3
-24 -10 -77 -77 -118 456 -46 596 l30 57 -65 -10 c-36 -5 -104 4 -153 22 -104
37 -87 37 -133 2z m21 -109 l100 -35 6 -104 c7 -118 9 -116 -97 -63 -56 29
-93 69 -129 140 -59 116 -49 121 120 62z m85 -256 c45 -18 31 -207 -18 -260
-118 -125 -251 89 -177 283 19 52 20 52 95 20 41 -18 86 -37 100 -43z"/>
</g>
</svg>
